<?xml version="1.0" standalone="no"?>
<!DOCTYPE svg PUBLIC "-//W3C//DTD SVG 20010904//EN"
 "http://www.w3.org/TR/2001/REC-SVG-20010904/DTD/svg10.dtd">
<svg version="1.0" xmlns="http://www.w3.org/2000/svg"
 width="1024.000000pt" height="1024.000000pt" viewBox="0 0 1024.000000 1024.000000"
 preserveAspectRatio="xMidYMid meet">

<g transform="translate(0.000000,1024.000000) scale(0.100000,-0.100000)"
fill="#000000" stroke="none">
<path d="M5078 7397 c-96 -149 -123 -238 -115 -375 6 -111 37 -173 123 -250
l64 -57 0 -462 c0 -254 -4 -464 -9 -467 -5 -3 -14 15 -21 40 -7 26 -49 102
-92 170 l-80 124 -5 253 c-5 206 -8 255 -21 270 -14 16 -16 16 -30 -4 -11 -16
-14 -67 -13 -271 2 -279 1 -276 73 -379 58 -82 102 -170 123 -245 20 -70 34
-521 16 -494 -6 8 -11 23 -11 32 0 9 -25 66 -55 127 -60 119 -140 226 -233
313 -56 51 -59 57 -66 114 -13 115 -51 208 -116 278 -34 37 -40 51 -55 136
-10 52 -23 101 -30 109 -32 34 -45 -28 -24 -118 5 -24 7 -46 5 -49 -24 -23
-155 98 -172 159 -8 29 -14 34 -39 34 -27 0 -30 -3 -28 -28 5 -66 101 -178
190 -222 97 -47 140 -97 181 -208 33 -86 29 -94 -20 -57 -131 98 -335 210
-384 210 -18 0 -39 14 -69 48 -29 32 -66 59 -107 78 -59 27 -71 29 -183 28
-107 0 -130 -4 -217 -33 -54 -17 -98 -37 -98 -44 0 -23 117 -142 171 -174 69
-41 154 -63 245 -63 85 0 148 17 212 59 56 36 75 34 170 -20 44 -25 231 -148
251 -165 10 -9 -30 -39 -99 -74 -124 -62 -245 -89 -330 -72 -41 8 -47 6 -63
-14 -9 -13 -17 -25 -17 -28 0 -2 23 -9 50 -15 120 -26 252 -3 398 67 65 32 88
39 105 32 12 -5 41 -14 64 -20 48 -12 95 -60 170 -174 48 -73 125 -244 116
-258 -2 -5 -25 10 -51 33 -117 103 -255 160 -403 167 -154 7 -251 -34 -339
-144 -32 -40 -100 -158 -100 -174 0 -4 56 -13 125 -20 142 -15 210 -6 302 37
58 28 146 116 141 142 -6 27 -155 20 -253 -12 -70 -23 -77 -24 -55 -7 58 45
215 86 299 78 147 -14 325 -181 383 -357 19 -59 22 -97 27 -336 l6 -270 62 -3
61 -3 4 278 c4 272 4 280 31 357 15 43 39 98 53 122 33 55 115 131 185 169 47
25 67 30 151 33 72 3 111 0 146 -12 56 -18 152 -71 112 -62 -118 28 -137 29
-168 15 -31 -13 -43 -29 -22 -29 19 0 10 -32 -10 -37 -19 -5 -19 -7 7 -29 69
-59 169 -79 347 -71 65 4 121 8 123 11 3 2 -12 37 -33 77 -84 159 -197 239
-348 247 -46 2 -106 -1 -135 -7 -93 -20 -207 -71 -280 -127 -39 -30 -71 -49
-71 -42 0 26 79 189 124 257 26 39 73 93 104 122 55 49 59 51 107 46 28 -2 75
-16 105 -30 138 -64 299 -92 388 -68 44 12 48 17 33 40 -7 10 -32 13 -102 12
-72 -1 -108 3 -154 18 -69 24 -244 103 -245 112 0 11 212 155 285 192 28 13
117 48 198 76 131 45 161 52 250 56 66 3 93 2 77 -4 -14 -5 -37 -9 -51 -10
-51 -2 -289 -93 -289 -110 0 -19 82 -44 156 -48 154 -10 263 35 375 155 38 41
69 77 69 81 0 8 -75 37 -145 57 -79 22 -204 28 -279 14 -77 -14 -145 -55 -176
-106 -13 -20 -33 -36 -48 -40 -111 -24 -281 -111 -385 -197 -26 -22 -50 -37
-54 -34 -9 9 16 94 45 152 33 69 58 93 121 121 80 36 157 106 192 176 24 48
28 62 18 74 -21 25 -52 13 -63 -24 -12 -42 -82 -121 -130 -147 -19 -11 -37
-17 -40 -14 -3 2 4 36 15 74 23 85 23 91 2 99 -25 10 -41 -13 -52 -74 -18 -99
-24 -114 -66 -166 -61 -75 -92 -146 -110 -254 l-16 -95 -78 -80 c-89 -92 -136
-154 -179 -240 -32 -65 -77 -197 -87 -259 -14 -87 -16 -13 -6 241 16 377 16
378 207 601 52 61 91 148 80 178 -3 9 -15 14 -28 12 -16 -2 -26 -16 -40 -59
-14 -43 -37 -76 -92 -135 -39 -44 -80 -90 -89 -104 -16 -24 -17 -20 -17 108 0
118 3 141 29 221 21 66 41 105 77 151 38 48 46 65 38 78 -19 30 -31 23 -90
-52 l-59 -75 -3 177 -2 177 -31 31 c-42 43 -49 82 -54 284 -5 202 4 189 34
-53 19 -147 31 -197 49 -197 4 0 21 21 39 48 87 130 90 279 9 447 -33 70 -119
195 -133 195 -5 0 -29 -33 -55 -73z m-1114 -1302 c75 -14 148 -42 81 -31 -16
3 -82 13 -145 22 -63 9 -117 18 -119 20 -10 10 114 3 183 -11z"/>
<path d="M4520 7060 c0 -107 14 -177 48 -248 48 -99 141 -171 220 -172 30 0
33 2 27 23 -12 39 -79 160 -112 204 -18 24 -29 43 -24 43 16 0 122 -122 153
-176 16 -30 34 -54 39 -54 17 0 29 40 29 97 -1 131 -94 244 -277 337 -104 52
-103 53 -103 -54z"/>
<path d="M3863 6969 c5 -193 17 -237 85 -338 68 -101 139 -152 241 -171 68
-13 73 -7 45 56 -46 104 -135 276 -165 320 -16 24 -26 44 -20 44 24 0 145
-177 209 -306 20 -41 40 -74 44 -74 13 0 30 84 30 150 -1 121 -59 230 -178
332 -69 59 -204 134 -263 145 l-33 6 5 -164z"/>
<path d="M6358 7120 c-43 -13 -150 -70 -200 -107 -105 -77 -178 -190 -199
-311 -11 -62 -4 -121 21 -187 l12 -30 23 55 c33 78 89 174 146 251 59 80 93
111 55 51 -34 -55 -176 -357 -176 -376 0 -11 10 -11 53 -4 142 26 272 152 312
303 24 96 18 366 -9 364 -6 0 -23 -4 -38 -9z"/>
<path d="M5625 6662 c-110 -59 -166 -124 -185 -215 -12 -60 -1 -141 23 -164
14 -14 17 -11 27 28 15 55 71 169 83 169 5 0 6 -8 2 -17 -39 -97 -64 -193 -50
-193 23 0 101 49 125 78 51 62 79 182 65 286 -8 66 -15 68 -90 28z"/>
<path d="M4651 6405 c5 -54 12 -72 35 -96 42 -44 58 -39 51 17 -3 29 -1 41 4
33 5 -8 9 -29 9 -46 0 -48 27 -43 35 7 10 62 -41 127 -116 145 l-25 6 7 -66z"/>
<path d="M3725 5865 c-64 -16 -125 -41 -125 -52 0 -10 90 -114 130 -151 74
-70 212 -89 303 -42 62 31 75 53 41 68 -22 11 -182 54 -244 66 -14 3 18 3 70
1 52 -3 128 -13 168 -24 39 -10 72 -17 72 -15 0 17 -34 66 -64 91 -75 67 -220
91 -351 58z"/>
<path d="M6558 5843 c7 -3 16 -2 19 1 4 3 -2 6 -13 5 -11 0 -14 -3 -6 -6z"/>
<path d="M6618 5823 c6 -2 18 -2 25 0 6 3 1 5 -13 5 -14 0 -19 -2 -12 -5z"/>
<path d="M6420 5746 c-25 -6 -44 -16 -43 -22 1 -6 -11 -11 -26 -11 -15 0 -56
-13 -91 -29 l-63 -30 29 -19 c22 -15 50 -21 120 -23 78 -3 97 -1 135 18 45 23
129 97 129 114 0 5 -11 -1 -24 -13 -20 -19 -24 -20 -29 -7 -4 9 -18 16 -32 16
-15 0 -34 4 -43 9 -10 5 -35 4 -62 -3z m97 -68 c0 -7 -13 -13 -29 -14 -33 -1
-38 13 -5 19 12 2 25 5 28 6 3 0 6 -5 6 -11z m-137 -13 c7 -9 18 -14 25 -12
14 6 51 -20 42 -29 -4 -4 -12 -3 -19 2 -19 14 -65 17 -73 5 -8 -13 -52 -14
-60 -2 -3 5 0 13 7 17 8 5 6 10 -8 15 -18 7 -18 8 3 8 12 1 24 -5 27 -11 3 -9
8 -8 16 5 14 21 24 22 40 2z"/>
<path d="M5653 5283 c9 -2 25 -2 35 0 9 3 1 5 -18 5 -19 0 -27 -2 -17 -5z"/>
<path d="M3273 5106 c-18 -8 -52 -30 -75 -48 -24 -18 -45 -34 -48 -36 -9 -6
55 -53 100 -74 59 -27 134 -27 185 0 l40 20 -38 17 c-21 8 -61 22 -90 30 l-52
14 40 0 c22 1 75 -10 118 -23 42 -13 79 -21 82 -17 7 13 -32 68 -69 96 -44 34
-142 44 -193 21z"/>
<path d="M6944 5110 c-63 -20 -123 -114 -112 -178 3 -18 8 -17 58 22 30 23 73
52 95 65 35 20 31 14 -29 -43 -38 -36 -67 -68 -63 -72 3 -3 28 -7 56 -7 39 -1
57 5 88 28 21 16 43 36 50 45 21 26 74 132 69 138 -10 9 -182 11 -212 2z"/>
<path d="M3737 4799 c-43 -23 -80 -91 -75 -137 3 -23 8 -28 37 -30 87 -9 145
31 187 127 13 29 24 55 24 57 0 2 -30 4 -67 4 -48 -1 -79 -7 -106 -21z m63
-53 c0 -3 -15 -14 -32 -26 l-33 -22 30 26 c31 27 35 29 35 22z"/>
<path d="M2658 4149 c-95 -14 -155 -55 -194 -131 -34 -67 -30 -137 10 -198 34
-51 72 -75 161 -101 182 -52 205 -60 225 -86 11 -14 20 -39 20 -55 0 -121
-219 -147 -356 -43 -39 30 -40 30 -78 -37 l-27 -47 43 -27 c96 -61 125 -69
248 -69 110 0 117 1 170 31 128 73 166 222 84 331 -37 49 -84 72 -211 104
-125 30 -162 50 -177 92 -38 105 155 162 276 82 21 -14 43 -25 50 -24 17 0 80
87 73 100 -11 17 -120 67 -161 74 -76 12 -99 12 -156 4z"/>
<path d="M3540 4147 c-81 -19 -126 -44 -195 -109 -87 -81 -127 -165 -133 -274
-3 -61 0 -95 13 -135 82 -246 370 -359 607 -238 56 28 145 114 171 164 63 124
61 261 -6 389 -79 150 -286 241 -457 203z m186 -138 c70 -26 135 -85 166 -147
31 -64 30 -169 0 -229 -53 -102 -132 -155 -245 -161 -86 -5 -145 16 -208 75
-68 63 -93 127 -87 224 7 121 61 195 175 239 64 25 130 25 199 -1z"/>
<path d="M4325 4154 c-10 -4 -11 -777 -1 -792 5 -9 101 -7 116 3 8 5 10 79 9
248 0 133 2 244 6 245 4 2 68 -63 143 -145 306 -334 324 -351 367 -355 l40 -3
0 395 0 395 -62 3 -63 3 0 -266 c0 -146 -4 -265 -9 -265 -4 0 -46 42 -92 92
-46 51 -131 142 -189 203 -58 61 -132 141 -166 178 -57 62 -73 72 -99 61z"/>
<path d="M6204 4136 c-3 -7 -4 -35 -2 -62 l3 -49 140 -5 140 -5 1 -315 c0
-173 1 -321 2 -328 1 -9 19 -12 65 -10 l62 3 0 325 0 325 138 3 137 3 0 64 0
65 -340 0 c-280 0 -342 -2 -346 -14z"/>
<path d="M7435 4142 l-40 -3 -59 -127 c-164 -355 -296 -644 -296 -648 0 -2 31
-4 69 -4 l69 0 22 58 c13 31 34 78 47 104 l23 47 167 -3 c93 -2 171 -4 174 -5
3 -1 27 -46 53 -101 l47 -100 75 0 74 0 -84 168 c-46 92 -127 264 -181 382
-54 118 -102 220 -109 225 -6 6 -29 9 -51 7z m70 -335 c27 -59 46 -109 43
-112 -3 -3 -55 -4 -115 -3 l-109 3 59 125 c40 85 61 119 67 110 4 -8 29 -63
55 -123z"/>
<path d="M5599 4108 c-13 -33 -57 -130 -240 -527 -55 -117 -99 -215 -99 -218
0 -2 32 -3 71 -1 l70 3 42 98 41 97 177 0 176 0 32 -72 c56 -131 47 -123 129
-126 40 -2 72 0 72 3 0 3 -18 41 -40 85 -22 44 -99 207 -171 363 -71 155 -137
292 -145 305 -11 17 -24 22 -58 22 -40 0 -45 -3 -57 -32z m119 -293 c28 -63
52 -118 52 -122 0 -4 -48 -7 -107 -6 -60 1 -107 4 -107 8 4 19 99 235 103 235
3 0 30 -52 59 -115z"/>
</g>
</svg>
